<?xml version="1.0" encoding="UTF-8"?>
<svg width="164px" height="80px" viewBox="0 0 164 80" version="1.1" xmlns="http://www.w3.org/2000/svg" xmlns:xlink="http://www.w3.org/1999/xlink">
    <!-- Generator: Sketch 50 (54983) - http://www.bohemiancoding.com/sketch -->
    <title>Export/confident-Export/confident-4</title>
    <desc>Created with Sketch.</desc>
    <defs></defs>
    <g id="Export/confident-Export/confident-4" stroke="none" stroke-width="1" fill="none" fill-rule="evenodd">
        <g id="confident-4" transform="translate(49.000000, 0.000000)">
            <polyline id="Path" stroke="#262B3D" points="66.9325728 79.9404937 66.9325728 0.0838017271 17.4218916 0.0838017271 17.4218916 25.6677864"></polyline>
            <path d="M28.0091608,63.9527069 L42.1465938,76.8957286" id="Path-2" stroke="#C3C3C3"></path>
            <path d="M25.9948076,40.2949991 L56.3209874,73.2093941" id="Path-3" stroke="#C3C3C3"></path>
            <path d="M28.7833883,13.4333901 L36.2397049,20.634873" id="Path-4" stroke="#C3C3C3"></path>
            <path d="M47.8171293,42.1012057 L60.166836,55.6268433" id="Path-5" stroke="#C3C3C3"></path>
            <path d="M0.5211268,77.8092199 C0.5211268,72.8727164 0.5211268,65.586467 0.5211268,55.9504718 C0.5211268,41.4964789 6.5158657,40.3805425 11.5230971,40.3805425 C16.5303284,40.3805425 19.8138868,46.8733297 19.8138868,55.9504718 C19.8138868,62.0018998 19.8138868,69.2881492 19.8138868,77.8092199" id="Path-6" stroke="#262B3D"></path>
            <path d="M1.415679,30.8390491 C1.415679,26.3463482 5.781866,22.0523139 10.5483486,22.0523139 C15.3148312,22.0523139 19.1700237,26.3463482 19.1700237,30.8390491 C19.1700237,35.3317499 15.9024256,40.3982065 10.5483486,40.3982065 C5.1942716,40.3982065 1.415679,35.3317499 1.415679,30.8390491 Z" id="Path-7" stroke="#262B3D"></path>
            <path d="M42.0503018,31.0000149 C42.0503018,26.507314 46.4164888,22.2132797 51.1829715,22.2132797 C55.9494541,22.2132797 59.8046465,26.507314 59.8046465,31.0000149 C59.8046465,35.4927157 56.5370484,40.5591723 51.1829715,40.5591723 C45.8288945,40.5591723 42.0503018,35.4927157 42.0503018,31.0000149 Z" id="Path-7" stroke="#C3C3C3"></path>
            <path d="M42.366709,78.3538446 C42.366709,68.7661403 42.366709,60.7514138 42.366709,54.309665 C42.366709,44.6470418 45.4504165,40.8383017 50.6393773,40.5135806 C55.828338,40.1888595 60.2434926,42.4819221 60.7879614,54.309665 C61.1509407,62.1948269 61.1509407,70.6427006 60.7879614,79.653286" id="Path-9" stroke="#C3C3C3"></path>
            <path d="M42.9879681,47.6286579 L29.1210163,39.5803681 C28.7649684,32.8369394 28.7649684,28.9938811 29.1210163,28.0511931 C29.6550883,26.6371611 30.4039078,26.5422405 31.2048072,26.6371611 C32.0057066,26.7320816 33.2399841,27.6394801 33.0342625,28.514981 C32.8285409,29.390482 32.178135,30.3606187 30.9107254,29.8187779 C30.0657856,29.4575507 29.2719355,28.210111 28.5291751,26.0764588" id="Path-8" stroke="#C3C3C3"></path>
        </g>
    </g>
</svg>