<?xml version="1.0" encoding="UTF-8"?>
<svg width="164px" height="80px" viewBox="0 0 164 80" version="1.1" xmlns="http://www.w3.org/2000/svg" xmlns:xlink="http://www.w3.org/1999/xlink">
    <!-- Generator: Sketch 50 (54983) - http://www.bohemiancoding.com/sketch -->
    <title>Export/confident-Export/confident-1</title>
    <desc>Created with Sketch.</desc>
    <defs></defs>
    <g id="Export/confident-Export/confident-1" stroke="none" stroke-width="1" fill="none" fill-rule="evenodd">
        <g id="confident-1" transform="translate(51.000000, 0.000000)">
            <polyline id="Path" stroke="#262B3D" points="61.6214699 77.0510783 61.6214699 0.080772749 13.6895869 0.080772749 13.6895869 22.2840939"></polyline>
            <path d="M23.9392489,61.6411633 L37.625867,74.1163649" id="Path-2" stroke="#C3C3C3"></path>
            <path d="M21.9891294,38.8385533 L51.3482671,70.5632714" id="Path-3" stroke="#C3C3C3"></path>
            <path d="M24.6887879,12.9478459 L31.9073372,19.8890342" id="Path-4" stroke="#C3C3C3"></path>
            <path d="M43.1155803,40.5794754 L55.0714791,53.6162345" id="Path-5" stroke="#C3C3C3"></path>
            <path d="M28.2071427,76.5653773 C28.2071427,61.7649783 28.2071427,51.0302772 28.2071427,44.3612737 C28.2071427,34.3577687 33.2372035,31.510129 38.2186739,30.8239554 C43.2001444,30.1377818 50.0890729,32.9610397 50.6161798,44.3612737 C50.9675843,51.9614298 50.9675843,62.696131 50.6161798,76.5653773" id="Path-9" stroke="#C3C3C3"></path>
            <path d="M39.0259452,30.8697962 C39.831982,29.0521544 41.666888,27.0270267 44.8064705,26.0435264 C49.5158441,24.5682758 53.3461206,26.1793012 55.8513313,29.3813254 C58.3565421,32.5833495 57.0755023,37.9163746 55.8513313,39.8389144 C54.6271603,41.7614543 52.4520411,42.9157319 50.5690997,43.409556" id="Path-10" stroke-opacity="0.5" stroke="#888888"></path>
            <path d="M0.963855422,29.6739616 C0.963855422,25.3436475 5.14191391,21.2048193 9.70302024,21.2048193 C14.2641266,21.2048193 17.9532079,25.3436475 17.9532079,29.6739616 C17.9532079,34.0042757 14.8264029,38.8876073 9.70302024,38.8876073 C4.57963756,38.8876073 0.963855422,34.0042757 0.963855422,29.6739616 Z" id="Path-7" stroke="#262B3D"></path>
            <path d="M0,79.4506027 C3.11589721e-15,74.0567399 3.11589721e-15,66.0954308 0,55.5666758 C-4.37693497e-15,39.773543 5.7353058,38.5542169 10.5258401,38.5542169 C15.3163746,38.5542169 18.4578309,45.6485507 18.4578309,55.5666758 C18.4578309,62.1787591 18.4578309,70.1400681 18.4578309,79.4506027" id="Path-6" stroke="#262B3D"></path>
        </g>
    </g>
</svg>