<?xml version="1.0" encoding="UTF-8"?>
<svg width="24px" height="24px" viewBox="0 0 24 24" version="1.1" xmlns="http://www.w3.org/2000/svg" xmlns:xlink="http://www.w3.org/1999/xlink">
    <!-- Generator: sketchtool 50 (54983) - http://www.bohemiancoding.com/sketch -->
    <title>DB8C91DB-6A61-461A-A761-BAA10DFF7EC6</title>
    <desc>Created with sketchtool.</desc>
    <defs>
        <path d="M11.5714286,22.5 L11.0714286,22.5 L11.0714286,22 C11.0714286,16.9905243 15.1333814,12.9285714 20.1428571,12.9285714 L20.6428571,12.9285714 L20.6428571,13.4285714 C20.6428571,18.4380471 16.5809043,22.5 11.5714286,22.5 Z M19.6266076,13.944821 C15.580601,14.2003033 12.3431604,17.4377439 12.0876781,21.4837504 C16.1336847,21.2282682 19.3711253,17.9908276 19.6266076,13.944821 Z M11.5714286,22.5 C6.56195286,22.5 2.5,18.4380471 2.5,13.4285714 L2.5,12.9285714 L3,12.9285714 C8.00947571,12.9285714 12.0714286,16.9905243 12.0714286,22 L12.0714286,22.5 L11.5714286,22.5 Z M3.51624955,13.944821 C3.77173183,17.9908276 7.00917245,21.2282682 11.055179,21.4837504 C10.7996967,17.4377439 7.56225612,14.2003033 3.51624955,13.944821 Z M7.85714286,13.6904762 C6.26671477,13.6904762 4.97619048,12.3999519 4.97619048,10.8095238 C4.97619048,9.97015145 5.34035935,9.20002161 5.94128871,8.66666667 C5.34035935,8.13331173 4.97619048,7.36318188 4.97619048,6.52380952 C4.97619048,4.93338143 6.26671477,3.64285714 7.85714286,3.64285714 C8.16663629,3.64285714 8.46823841,3.69069831 8.7527398,3.78272886 C9.02831943,2.47913151 10.1861042,1.5 11.5714286,1.5 C12.9461362,1.5 14.0967786,2.46418156 14.3818522,3.78661735 C14.6693053,3.69183027 14.9723816,3.64285714 15.2857143,3.64285714 C16.8761424,3.64285714 18.1666667,4.93338143 18.1666667,6.52380952 C18.1666667,7.36318188 17.8024978,8.13331173 17.2015684,8.66666667 C17.8024978,9.20002161 18.1666667,9.97015145 18.1666667,10.8095238 C18.1666667,12.3999519 16.8761424,13.6904762 15.2857143,13.6904762 C14.9762209,13.6904762 14.6746187,13.642635 14.3901173,13.5506045 C14.1145377,14.8542018 12.9567529,15.8333333 11.5714286,15.8333333 C10.1967209,15.8333333 9.04607853,14.8691518 8.76100494,13.546716 C8.47355185,13.6415031 8.17047559,13.6904762 7.85714286,13.6904762 Z M5.97619048,10.8095238 C5.97619048,11.8476671 6.81899952,12.6904762 7.85714286,12.6904762 C8.24747187,12.6904762 8.60834689,12.5765157 8.92754299,12.3585281 L9.81989824,11.7491147 L9.70677654,12.823771 L9.69047619,12.952381 C9.69047619,13.9905243 10.5332852,14.8333333 11.5714286,14.8333333 C12.6095719,14.8333333 13.452381,13.9905243 13.4551282,13.0047233 L13.321223,11.7326235 L14.2200645,12.3618126 C14.5243283,12.5747973 14.8925728,12.6904762 15.2857143,12.6904762 C16.3238576,12.6904762 17.1666667,11.8476671 17.1666667,10.8095238 C17.1666667,10.0792493 16.7430747,9.42918245 16.0897951,9.11809693 L15.1417916,8.66666667 L16.0897951,8.21523641 C16.7430747,7.90415088 17.1666667,7.25408404 17.1666667,6.52380952 C17.1666667,5.48566618 16.3238576,4.64285714 15.2857143,4.64285714 C14.8953853,4.64285714 14.5345103,4.75681767 14.2153142,4.97480525 L13.3229589,5.5842186 L13.4360806,4.50956237 L13.452381,4.38095238 C13.452381,3.34280904 12.6095719,2.5 11.5714286,2.5 C10.5332852,2.5 9.69047619,3.34280904 9.68772892,4.32860999 L9.82163416,5.60070979 L8.92279264,4.97152072 C8.6185288,4.75853604 8.25028432,4.64285714 7.85714286,4.64285714 C6.81899952,4.64285714 5.97619048,5.48566618 5.97619048,6.52380952 C5.97619048,7.25408404 6.39978242,7.90415088 7.05306203,8.21523641 L8.00106557,8.66666667 L7.05306203,9.11809693 C6.39978242,9.42918245 5.97619048,10.0792493 5.97619048,10.8095238 Z M11.5714286,5.78571429 C13.1618567,5.78571429 14.452381,7.07623858 14.452381,8.66666667 C14.452381,10.2570948 13.1618567,11.547619 11.5714286,11.547619 C9.98100048,11.547619 8.69047619,10.2570948 8.69047619,8.66666667 C8.69047619,7.07623858 9.98100048,5.78571429 11.5714286,5.78571429 Z M11.5714286,6.78571429 C10.5332852,6.78571429 9.69047619,7.62852333 9.69047619,8.66666667 C9.69047619,9.70481001 10.5332852,10.547619 11.5714286,10.547619 C12.6095719,10.547619 13.452381,9.70481001 13.452381,8.66666667 C13.452381,7.62852333 12.6095719,6.78571429 11.5714286,6.78571429 Z" id="path-1"></path>
    </defs>
    <g id="Symbols" stroke="none" stroke-width="1" fill="none" fill-rule="evenodd">
        <g id="Icon/Themify/flower">
            <mask id="mask-2" fill="white">
                <use xlink:href="#path-1"></use>
            </mask>
            <use id="Combined-Shape" fill="#262B3D" fill-rule="nonzero" xlink:href="#path-1"></use>
            <g id="UI/Color/Flat/Body" mask="url(#mask-2)" fill="#262B3D">
                <rect id="Base" x="0" y="0" width="24" height="24"></rect>
            </g>
        </g>
    </g>
</svg>