<?xml version="1.0" encoding="UTF-8"?>
<svg width="164px" height="80px" viewBox="0 0 164 80" version="1.1" xmlns="http://www.w3.org/2000/svg" xmlns:xlink="http://www.w3.org/1999/xlink">
    <!-- Generator: Sketch 50 (54983) - http://www.bohemiancoding.com/sketch -->
    <title>Export/interestPeople-4</title>
    <desc>Created with Sketch.</desc>
    <defs></defs>
    <g id="Export/interestPeople-4" stroke="none" stroke-width="1" fill="none" fill-rule="evenodd">
        <g id="interestPeople-4" transform="translate(40.000000, 2.000000)" stroke="#262B3D">
            <path d="M60.726923,43.1047381 C60.726923,38.4585259 65.5215496,33.643373 70.5370097,33.643373 C75.5524698,33.643373 80.3470964,38.6956244 80.3470964,43.1047381 C80.3470964,47.5138518 75.3194403,52.6030088 70.5370097,52.6030088 C65.7545791,52.6030088 60.726923,47.7509503 60.726923,43.1047381 Z" id="Path-16" stroke-width="0.5"></path>
            <path d="M57.8679127,72.5790614 C57.4045033,66.2635188 58.0834555,61.1460029 59.904769,57.2265137 C61.7260825,53.3070246 63.3148124,51.1126444 64.6709587,50.643373" id="Path-17" stroke-width="0.5"></path>
            <path d="M76.8679127,72.5790614 C76.4045034,66.2635188 77.0834555,61.1460029 78.904769,57.2265137 C80.7260825,53.3070246 82.3148124,51.1126443 83.6709587,50.643373" id="Path-17" stroke-width="0.5" transform="translate(80.198941, 61.611217) scale(-1, 1) translate(-80.198941, -61.611217) "></path>
            <path d="M3.78288735,43.1047381 C3.78288735,38.4585259 8.57751397,33.643373 13.5929741,33.643373 C18.6084341,33.643373 23.4030608,38.6956244 23.4030608,43.1047381 C23.4030608,47.5138518 18.3754046,52.6030088 13.5929741,52.6030088 C8.81054346,52.6030088 3.78288735,47.7509503 3.78288735,43.1047381 Z" id="Path-16" stroke-width="0.5"></path>
            <path d="M0.923877002,72.5790614 C0.460467695,66.2635188 1.1394198,61.1460029 2.96073332,57.2265137 C4.78204684,53.3070246 6.37077674,51.1126444 7.72692302,50.643373" id="Path-17" stroke-width="0.5"></path>
            <path d="M19.923877,72.5790614 C19.4604677,66.2635188 20.1394198,61.1460029 21.9607333,57.2265137 C23.7820468,53.3070246 25.3707767,51.1126443 26.726923,50.643373" id="Path-17" stroke-width="0.5" transform="translate(23.254905, 61.611217) scale(-1, 1) translate(-23.254905, -61.611217) "></path>
            <path d="M32,9.46136511 C32,4.81515288 36.7946266,0 41.8100867,0 C46.8255468,0 51.6201734,5.05225139 51.6201734,9.46136511 C51.6201734,13.8704788 46.5925173,18.9596358 41.8100867,18.9596358 C37.0276561,18.9596358 32,14.1075773 32,9.46136511 Z" id="Path-16" stroke-width="0.5"></path>
            <path d="M29.1409897,38.9356884 C28.6775803,32.6201458 29.3565325,27.5026299 31.177846,23.5831407 C32.9991595,19.6636516 34.5878894,17.4692714 35.9440357,17" id="Path-17" stroke-width="0.5"></path>
            <path d="M48.14099,38.9356884 C47.6775807,32.6201458 48.3565328,27.5026299 50.1778463,23.5831407 C51.9991598,19.6636516 53.5878897,17.4692713 54.944036,17" id="Path-17" stroke-width="0.5" transform="translate(51.472018, 27.967844) scale(-1, 1) translate(-51.472018, -27.967844) "></path>
            <path d="M32.1463489,48.6276301 C32.1463489,43.9814179 36.9409756,39.166265 41.9564357,39.166265 C46.9718957,39.166265 51.7665224,44.2185164 51.7665224,48.6276301 C51.7665224,53.0367438 46.7388662,58.1259008 41.9564357,58.1259008 C37.1740051,58.1259008 32.1463489,53.2738423 32.1463489,48.6276301 Z" id="Path-16"></path>
            <path d="M29.2411848,77.6633991 C28.7777754,71.3478565 29.4567276,66.2303406 31.2780411,62.3108515 C33.0993546,58.3913623 34.6880845,56.1969821 36.0442308,55.7277108" id="Path-17"></path>
            <path d="M48.4700308,77.2826762 C48.0066215,70.9671336 48.6855736,65.8496177 50.5068871,61.9301286 C52.3282007,58.0106394 53.9169305,55.8162592 55.2730768,55.3469879" id="Path-17" transform="translate(51.801059, 66.314832) scale(-1, 1) translate(-51.801059, -66.314832) "></path>
        </g>
    </g>
</svg>