<?xml version="1.0" encoding="UTF-8"?>
<svg width="164px" height="80px" viewBox="0 0 164 80" version="1.1" xmlns="http://www.w3.org/2000/svg" xmlns:xlink="http://www.w3.org/1999/xlink">
    <!-- Generator: Sketch 50 (54983) - http://www.bohemiancoding.com/sketch -->
    <title>Export/interestPeople-3</title>
    <desc>Created with Sketch.</desc>
    <defs></defs>
    <g id="Export/interestPeople-3" stroke="none" stroke-width="1" fill="none" fill-rule="evenodd">
        <g id="interestPeople-3" transform="translate(40.000000, 34.000000)" stroke="#262B3D">
            <g id="Group" transform="translate(0.726923, 0.643373)" stroke-width="0.5">
                <g id="Group-2" transform="translate(57.000000, 0.000000)">
                    <path d="M3,9.46136511 C3,4.81515288 7.7946266,0 12.8100867,0 C17.8255468,0 22.6201734,5.05225139 22.6201734,9.46136511 C22.6201734,13.8704788 17.5925173,18.9596358 12.8100867,18.9596358 C8.0276561,18.9596358 3,14.1075773 3,9.46136511 Z" id="Path-16"></path>
                    <path d="M0.1409897,38.9356884 C-0.3224197,32.6201458 0.3565325,27.5026299 2.177846,23.5831407 C3.9991595,19.6636516 5.5878894,17.4692714 6.9440357,17" id="Path-17"></path>
                    <path d="M19.14099,38.9356884 C18.6775807,32.6201458 19.3565328,27.5026299 21.1778463,23.5831407 C22.9991598,19.6636516 24.5878897,17.4692713 25.944036,17" id="Path-17" transform="translate(22.472018, 27.967844) scale(-1, 1) translate(-22.472018, -27.967844) "></path>
                </g>
                <path d="M3.05596435,9.46136511 C3.05596435,4.81515288 7.85059097,0 12.8660511,0 C17.8815111,0 22.6761378,5.05225139 22.6761378,9.46136511 C22.6761378,13.8704788 17.6484816,18.9596358 12.8660511,18.9596358 C8.08362046,18.9596358 3.05596435,14.1075773 3.05596435,9.46136511 Z" id="Path-16"></path>
                <path d="M0.196954002,38.9356884 C-0.266455305,32.6201458 0.412496803,27.5026299 2.23381032,23.5831407 C4.05512384,19.6636516 5.64385374,17.4692714 7.00000002,17" id="Path-17"></path>
                <path d="M19.1969537,38.9356884 C18.7335444,32.6201458 19.4124965,27.5026299 21.23381,23.5831407 C23.0551235,19.6636516 24.6438534,17.4692713 25.9999997,17" id="Path-17" transform="translate(22.527982, 27.967844) scale(-1, 1) translate(-22.527982, -27.967844) "></path>
            </g>
            <g id="Group-3" transform="translate(29.000000, 6.166265)">
                <path d="M3.14634895,9.46136511 C3.14634895,4.81515288 7.94097557,5.67347763e-16 12.9564357,0 C17.9718957,0 22.7665224,5.05225139 22.7665224,9.46136511 C22.7665224,13.8704788 17.7388662,18.9596358 12.9564357,18.9596358 C8.17400506,18.9596358 3.14634895,14.1075773 3.14634895,9.46136511 Z" id="Path-16"></path>
                <path d="M0.241184755,38.4971341 C-0.222224552,32.1815915 0.456727556,27.0640756 2.27804108,23.1445865 C4.0993546,19.2250973 5.68808449,17.0307171 7.04423077,16.5614458" id="Path-17"></path>
                <path d="M19.4700309,38.1164112 C19.0066216,31.8008686 19.6855737,26.6833527 21.5068872,22.7638636 C23.3282008,18.8443744 24.9169306,16.6499942 26.2730769,16.1807229" id="Path-17" transform="translate(22.801059, 27.148567) scale(-1, 1) translate(-22.801059, -27.148567) "></path>
            </g>
        </g>
    </g>
</svg>