<?xml version="1.0" encoding="UTF-8"?>
<svg width="164px" height="80px" viewBox="0 0 164 80" version="1.1" xmlns="http://www.w3.org/2000/svg" xmlns:xlink="http://www.w3.org/1999/xlink">
    <!-- Generator: Sketch 50 (54983) - http://www.bohemiancoding.com/sketch -->
    <title>Export/interestPeople-2</title>
    <desc>Created with Sketch.</desc>
    <defs></defs>
    <g id="Export/interestPeople-2" stroke="none" stroke-width="1" fill="none" fill-rule="evenodd">
        <g id="Group-6" transform="translate(35.000000, 0.000000)"></g>
        <g id="interestPeople-2" transform="translate(69.000000, 34.000000)" stroke="#262B3D">
            <g id="Group" transform="translate(0.000000, 7.000000)">
                <path d="M3.81229355,10.1615466 C3.81229355,5.5153343 8.60692017,0.70018147 13.6223803,0.70018147 C18.6378403,0.70018147 23.432467,5.7524329 23.432467,10.1615466 C23.432467,14.5706603 18.4048108,19.6598173 13.6223803,19.6598173 C8.83994966,19.6598173 3.81229355,14.8077588 3.81229355,10.1615466 Z" id="Path-16"></path>
                <path d="M0.974490802,39.2643231 C0.511081495,32.9487805 1.1900336,27.8312646 3.01134712,23.9117754 C4.83266064,19.9922863 6.42139054,17.7979061 7.77753682,17.3286347" id="Path-17"></path>
                <path d="M20.0967588,38.9501457 C19.6333495,32.6346031 20.3123016,27.5170872 22.1336151,23.597598 C23.9549286,19.6781089 25.5436585,17.4837286 26.8998048,17.0144573" id="Path-17" transform="translate(23.427787, 27.982301) scale(-1, 1) translate(-23.427787, -27.982301) "></path>
            </g>
            <g id="Group-7" transform="translate(28.730003, 0.639999)" stroke-width="0.5">
                <path d="M3,9.46136511 C3,4.81515288 7.7946266,0 12.8100867,0 C17.8255468,0 22.6201734,5.05225139 22.6201734,9.46136511 C22.6201734,13.8704788 17.5925173,18.9596358 12.8100867,18.9596358 C8.0276561,18.9596358 3,14.1075773 3,9.46136511 Z" id="Path-16"></path>
                <path d="M0.140989689,38.9356884 C-0.322419711,32.6201458 0.356532489,27.5026299 2.17784599,23.5831407 C3.99915949,19.6636516 5.58788939,17.4692714 6.94403569,17" id="Path-17"></path>
                <path d="M19.1409897,37.9356884 C18.6775804,31.6201458 19.3565325,26.5026299 21.177846,22.5831407 C22.9991595,18.6636516 24.5878894,16.4692713 25.9440357,16" id="Path-17" transform="translate(22.472018, 26.967844) scale(-1, 1) translate(-22.472018, -26.967844) "></path>
            </g>
        </g>
    </g>
</svg>