<?xml version="1.0" encoding="UTF-8"?>
<svg width="164px" height="80px" viewBox="0 0 164 80" version="1.1" xmlns="http://www.w3.org/2000/svg" xmlns:xlink="http://www.w3.org/1999/xlink">
    <!-- Generator: Sketch 50 (54983) - http://www.bohemiancoding.com/sketch -->
    <title>Export/interestPeople-5</title>
    <desc>Created with Sketch.</desc>
    <defs></defs>
    <g id="Export/interestPeople-5" stroke="none" stroke-width="1" fill="none" fill-rule="evenodd">
        <g id="interestPeople-5" transform="translate(43.000000, 0.000000)" stroke="#262B3D">
            <g id="Group" transform="translate(53.000000, 38.000000)" stroke-width="0.5">
                <path d="M3.49016093,9.53929126 C3.49016093,5.2172334 7.9502787,0.738021395 12.615823,0.738021395 C17.2813673,0.738021395 21.741485,5.43779014 21.741485,9.53929126 C21.741485,13.6407924 17.0645956,18.3748919 12.615823,18.3748919 C8.16705033,18.3748919 3.49016093,13.8613491 3.49016093,9.53929126 Z" id="Path-16"></path>
                <path d="M0.830616465,36.9572664 C0.399537953,31.0823431 1.0311214,26.3218632 2.72536651,22.6758267 C4.41961163,19.0297903 5.89749991,16.9885064 7.15903135,16.5519749" id="Path-17"></path>
                <path d="M18.505035,36.9572664 C18.0739566,31.0823431 18.70554,26.3218632 20.3997851,22.6758267 C22.0940302,19.0297903 23.5719185,16.9885063 24.8334499,16.5519749" id="Path-17" transform="translate(21.603666, 26.754621) scale(-1, 1) translate(-21.603666, -26.754621) "></path>
            </g>
            <path d="M3.51896498,47.5392913 C3.51896498,43.2172334 7.97908276,38.7380214 12.6446271,38.7380214 C17.3101713,38.7380214 21.7702891,43.4377901 21.7702891,47.5392913 C21.7702891,51.6407924 17.0933996,56.3748919 12.6446271,56.3748919 C8.19585438,56.3748919 3.51896498,51.8613491 3.51896498,47.5392913 Z" id="Path-16" stroke-width="0.5"></path>
            <path d="M0.859420467,74.9572664 C0.428342042,69.0823431 1.0599254,64.3218632 2.75417053,60.6758267 C4.44841567,57.0297903 5.92630394,54.9885064 7.18783537,54.5519749" id="Path-17" stroke-width="0.5"></path>
            <path d="M18.533839,74.9572664 C18.1027606,69.0823431 18.734344,64.3218632 20.4285891,60.6758267 C22.1228342,57.0297903 23.6007225,54.9885063 24.8622539,54.5519749" id="Path-17" stroke-width="0.5" transform="translate(21.632470, 64.754621) scale(-1, 1) translate(-21.632470, -64.754621) "></path>
            <path d="M29.7674419,16.2431303 C29.7674419,11.9210725 34.2275596,7.44186047 38.8931039,7.44186047 C43.5586482,7.44186047 48.018766,12.1416292 48.018766,16.2431303 C48.018766,20.3446314 43.3418766,25.078731 38.8931039,25.078731 C34.4443313,25.078731 29.7674419,20.5651882 29.7674419,16.2431303 Z" id="Path-16" stroke-width="0.5"></path>
            <path d="M27.1078974,43.6611055 C26.6768189,37.7861821 27.3084023,33.0257022 29.0026474,29.3796658 C30.6968926,25.7336294 32.1747808,23.6923455 33.4363123,23.255814" id="Path-17" stroke-width="0.5"></path>
            <path d="M44.7823162,43.6611055 C44.3512378,37.7861821 44.9828212,33.0257022 46.6770663,29.3796658 C48.3713114,25.7336294 49.8491997,23.6923454 51.1107311,23.255814" id="Path-17" stroke-width="0.5" transform="translate(47.880947, 33.458460) scale(-1, 1) translate(-47.880947, -33.458460) "></path>
            <path d="M56.744186,8.80126987 C56.744186,4.47921198 61.2043038,0 65.8698481,0 C70.5353924,0 74.9955101,4.69976873 74.9955101,8.80126987 C74.9955101,12.902771 70.3186207,17.6368705 65.8698481,17.6368705 C61.4210754,17.6368705 56.744186,13.1233277 56.744186,8.80126987 Z" id="Path-16" stroke-width="0.5"></path>
            <path d="M54.0846416,36.219245 C53.6535631,30.3443217 54.2851465,25.5838418 55.9793916,21.9378053 C57.6736367,18.2917689 59.151525,16.250485 60.4130565,15.8139535" id="Path-17" stroke-width="0.5"></path>
            <path d="M71.7590604,36.219245 C71.327982,30.3443217 71.9595653,25.5838418 73.6538105,21.9378053 C75.3480556,18.2917689 76.8259439,16.2504849 78.0874753,15.8139535" id="Path-17" stroke-width="0.5" transform="translate(74.857691, 26.016599) scale(-1, 1) translate(-74.857691, -26.016599) "></path>
            <path d="M3.51896498,8.80126987 C3.51896498,4.47921198 7.97908276,0 12.6446271,0 C17.3101713,0 21.7702891,4.69976873 21.7702891,8.80126987 C21.7702891,12.902771 17.0933996,17.6368705 12.6446271,17.6368705 C8.19585438,17.6368705 3.51896498,13.1233277 3.51896498,8.80126987 Z" id="Path-16" stroke-width="0.5"></path>
            <path d="M0.859420467,36.219245 C0.428342042,30.3443217 1.0599254,25.5838418 2.75417053,21.9378053 C4.44841567,18.2917689 5.92630394,16.250485 7.18783537,15.8139535" id="Path-17" stroke-width="0.5"></path>
            <path d="M18.5338387,36.219245 C18.1027603,30.3443217 18.7343437,25.5838418 20.4285888,21.9378053 C22.1228339,18.2917689 23.6007222,16.2504849 24.8622536,15.8139535" id="Path-17" stroke-width="0.5" transform="translate(21.632470, 26.016599) scale(-1, 1) translate(-21.632470, -26.016599) "></path>
            <g id="Group-2" transform="translate(27.000000, 43.000000)">
                <path d="M2.90358037,9.67686521 C2.90358037,5.35480735 7.36369823,0.875595349 12.0292425,0.875595349 C16.6947867,0.875595349 21.1549046,5.57536409 21.1549046,9.67686521 C21.1549046,13.7783663 16.4780151,18.5124659 12.0292425,18.5124659 C7.58046986,18.5124659 2.90358037,13.9989231 2.90358037,9.67686521 Z" id="Path-16"></path>
                <path d="M0.20110214,36.6868829 C-0.229976372,30.8119595 0.40160707,26.0514796 2.09585219,22.4054433 C3.7900973,18.7594068 5.26798558,16.7181229 6.52951702,16.2815914" id="Path-17"></path>
            </g>
            <path d="M45.0884007,79.332722 C44.6573223,73.4577987 45.2889056,68.6973188 46.9831507,65.0512824 C48.677396,61.405246 50.1552841,59.363962 51.4168156,58.9274306" id="Path-17" transform="translate(48.187032, 69.130076) scale(-1, 1) translate(-48.187032, -69.130076) "></path>
        </g>
    </g>
</svg>