<?xml version="1.0" encoding="UTF-8"?>
<svg width="164px" height="80px" viewBox="0 0 164 80" version="1.1" xmlns="http://www.w3.org/2000/svg" xmlns:xlink="http://www.w3.org/1999/xlink">
    <!-- Generator: Sketch 50 (54983) - http://www.bohemiancoding.com/sketch -->
    <title>Export/interestPeople-1</title>
    <desc>Created with Sketch.</desc>
    <defs></defs>
    <g id="Export/interestPeople-1" stroke="none" stroke-width="1" fill="none" fill-rule="evenodd">
        <g id="interestPeople-1" transform="translate(69.000000, 40.000000)" stroke="#262B3D">
            <path d="M3.81229355,10.1615466 C3.81229355,5.51533435 8.60692017,0.700181467 13.6223803,0.700181467 C18.6378403,0.700181467 23.432467,5.75243286 23.432467,10.1615466 C23.432467,14.5706603 18.4048108,19.6598173 13.6223803,19.6598173 C8.83994966,19.6598173 3.81229355,14.8077588 3.81229355,10.1615466 Z" id="Path-16"></path>
            <path d="M0.974490802,39.2643231 C0.511081495,32.9487805 1.1900336,27.8312646 3.01134712,23.9117754 C4.83266064,19.9922863 6.42139054,17.7979061 7.77753682,17.3286347" id="Path-17"></path>
            <path d="M20.0967588,38.9501457 C19.6333495,32.6346031 20.3123016,27.5170872 22.1336151,23.597598 C23.9549286,19.6781089 25.5436585,17.4837286 26.8998048,17.0144573" id="Path-17" transform="translate(23.427787, 27.982301) scale(-1, 1) translate(-23.427787, -27.982301) "></path>
        </g>
    </g>
</svg>