<?xml version="1.0" encoding="UTF-8"?>
<svg width="70px" height="27px" viewBox="0 0 70 27" version="1.1" xmlns="http://www.w3.org/2000/svg" xmlns:xlink="http://www.w3.org/1999/xlink">
    <!-- Generator: sketchtool 50.2 (55047) - http://www.bohemiancoding.com/sketch -->
    <title>F592E7AA-1F9B-4BF1-B759-E93B831F85F9</title>
    <desc>Created with sketchtool.</desc>
    <defs></defs>
    <g id="Experimentation:-App-bar" stroke="none" stroke-width="1" fill="none" fill-rule="evenodd">
        <g id="App-bar" transform="translate(-154.000000, -17.000000)">
            <g id="Monti-logo">
                <g transform="translate(154.000000, 16.000000)">
                    <rect id="Bounding-box" fill="#FFFFFF" x="0" y="1" width="70" height="27"></rect>
                    <g id="Confetti" transform="translate(1.000000, 0.000000)">
                        <path d="M59.3284271,3.32842712 L59.3284271,4.32842712 C59.3284271,4.6045695 59.1045695,4.82842712 58.8284271,4.82842712 C58.5522847,4.82842712 58.3284271,4.6045695 58.3284271,4.32842712 L58.3284271,3.32842712 L57.3284271,3.32842712 C57.0522847,3.32842712 56.8284271,3.1045695 56.8284271,2.82842712 C56.8284271,2.55228475 57.0522847,2.32842712 57.3284271,2.32842712 L58.3284271,2.32842712 L58.3284271,1.32842712 C58.3284271,1.05228475 58.5522847,0.828427125 58.8284271,0.828427125 C59.1045695,0.828427125 59.3284271,1.05228475 59.3284271,1.32842712 L59.3284271,2.32842712 L60.3284271,2.32842712 C60.6045695,2.32842712 60.8284271,2.55228475 60.8284271,2.82842712 C60.8284271,3.1045695 60.6045695,3.32842712 60.3284271,3.32842712 L59.3284271,3.32842712 Z" id="Confetti/Plus" fill="#FF921F" transform="translate(58.828427, 2.828427) rotate(45.000000) translate(-58.828427, -2.828427) "></path>
                        <path d="M49.5,26.5 L49.5,27.5 C49.5,27.7761424 49.2761424,28 49,28 C48.7238576,28 48.5,27.7761424 48.5,27.5 L48.5,26.5 L47.5,26.5 C47.2238576,26.5 47,26.2761424 47,26 C47,25.7238576 47.2238576,25.5 47.5,25.5 L48.5,25.5 L48.5,24.5 C48.5,24.2238576 48.7238576,24 49,24 C49.2761424,24 49.5,24.2238576 49.5,24.5 L49.5,25.5 L50.5,25.5 C50.7761424,25.5 51,25.7238576 51,26 C51,26.2761424 50.7761424,26.5 50.5,26.5 L49.5,26.5 Z" id="Confetti/Plus" fill="#FF921F"></path>
                        <path d="M32.25,6.25 L32.25,6.75 C32.25,6.88807119 32.1380712,7 32,7 C31.8619288,7 31.75,6.88807119 31.75,6.75 L31.75,6.25 L31.25,6.25 C31.1119288,6.25 31,6.13807119 31,6 C31,5.86192881 31.1119288,5.75 31.25,5.75 L31.75,5.75 L31.75,5.25 C31.75,5.11192881 31.8619288,5 32,5 C32.1380712,5 32.25,5.11192881 32.25,5.25 L32.25,5.75 L32.75,5.75 C32.8880712,5.75 33,5.86192881 33,6 C33,6.13807119 32.8880712,6.25 32.75,6.25 L32.25,6.25 Z" id="Confetti/Plus" fill="#FF921F"></path>
                        <path d="M4.5,4 C4.22385763,4 4,3.77614237 4,3.5 C4,3.22385763 4.22385763,3 4.5,3 L5.5,3 C5.77614237,3 6,3.22385763 6,3.5 C6,3.77614237 5.77614237,4 5.5,4 L4.5,4 Z M7.5,4 C7.22385763,4 7,3.77614237 7,3.5 C7,3.22385763 7.22385763,3 7.5,3 L8.5,3 C8.77614237,3 9,3.22385763 9,3.5 C9,3.77614237 8.77614237,4 8.5,4 L7.5,4 Z M6,1.5 C6,1.22385763 6.22385763,1 6.5,1 C6.77614237,1 7,1.22385763 7,1.5 L7,2.5 C7,2.77614237 6.77614237,3 6.5,3 C6.22385763,3 6,2.77614237 6,2.5 L6,1.5 Z M6,4.5 C6,4.22385763 6.22385763,4 6.5,4 C6.77614237,4 7,4.22385763 7,4.5 L7,5.5 C7,5.77614237 6.77614237,6 6.5,6 C6.22385763,6 6,5.77614237 6,5.5 L6,4.5 Z" id="Combined-Shape" fill="#00E9BA"></path>
                        <path d="M64.5,8 L64.5,9 M66.9748737,9.02512627 L66.267767,9.73223305 M68,11.5 L67,11.5 M66.9748737,13.9748737 L66.267767,13.267767 M64.5,15 L64.5,14 M62.0251263,13.9748737 L62.732233,13.267767 M61,11.5 L62,11.5 M62.0251263,9.02512627 L62.732233,9.73223305" id="Line-4" stroke="#3D2633" stroke-linecap="round" stroke-linejoin="round"></path>
                        <circle id="Oval" stroke="#FF921F" cx="2" cy="22" r="2"></circle>
                        <path d="M33.3238817,21.1097126 C33.5492545,21.0365709 33.7746272,21 34,21 C34.225381,21 34.450762,21.0365735 34.6761429,21.1097206 L34.6761394,21.1097315 C34.7777026,21.1426936 34.8573263,21.2223182 34.8902874,21.3238817 C34.9634291,21.5492545 35,21.7746272 35,22 C35,22.225381 34.9634265,22.450762 34.8902794,22.6761429 L34.8902685,22.6761394 C34.8573064,22.7777026 34.7776818,22.8573263 34.6761183,22.8902874 C34.4507455,22.9634291 34.2253728,23 34,23 C33.774619,23 33.549238,22.9634265 33.3238571,22.8902794 L33.3238606,22.8902685 C33.2222974,22.8573064 33.1426737,22.7776818 33.1097126,22.6761183 C33.0365709,22.4507455 33,22.2253728 33,22 C33,21.774619 33.0365735,21.549238 33.1097206,21.3238571 L33.1097315,21.3238606 C33.1426936,21.2222974 33.2223182,21.1426737 33.3238817,21.1097126 Z" id="Rectangle" fill="#768C9A"></path>
                        <path d="M21.162132,25.0547943 C21.2747547,25.0182648 21.3873773,25 21.5,25 C21.612799,25 21.725598,25.018322 21.838397,25.054966 L21.8383214,25.0551986 C21.8890191,25.0716683 21.9287593,25.1114268 21.9452057,25.162132 C21.9817352,25.2747547 22,25.3873773 22,25.5 C22,25.612799 21.981678,25.725598 21.945034,25.838397 L21.9448014,25.8383214 C21.9283317,25.8890191 21.8885732,25.9287593 21.837868,25.9452057 C21.7252453,25.9817352 21.6126227,26 21.5,26 C21.387201,26 21.274402,25.981678 21.161603,25.945034 L21.1616786,25.9448014 C21.1109809,25.9283317 21.0712407,25.8885732 21.0547943,25.837868 C21.0182648,25.7252453 21,25.6126227 21,25.5 C21,25.387201 21.018322,25.274402 21.054966,25.161603 L21.0551986,25.1616786 C21.0716683,25.1109809 21.1114268,25.0712407 21.162132,25.0547943 Z" id="Rectangle" fill="#768C9A"></path>
                        <path d="M60.162132,23.0547943 C60.2747547,23.0182648 60.3873773,23 60.5,23 C60.612799,23 60.725598,23.018322 60.838397,23.054966 L60.8383214,23.0551986 C60.8890191,23.0716683 60.9287593,23.1114268 60.9452057,23.162132 C60.9817352,23.2747547 61,23.3873773 61,23.5 C61,23.612799 60.981678,23.725598 60.945034,23.838397 L60.9448014,23.8383214 C60.9283317,23.8890191 60.8885732,23.9287593 60.837868,23.9452057 C60.7252453,23.9817352 60.6126227,24 60.5,24 C60.387201,24 60.274402,23.981678 60.161603,23.945034 L60.1616786,23.9448014 C60.1109809,23.9283317 60.0712407,23.8885732 60.0547943,23.837868 C60.0182648,23.7252453 60,23.6126227 60,23.5 C60,23.387201 60.018322,23.274402 60.054966,23.161603 L60.0551986,23.1616786 C60.0716683,23.1109809 60.1114268,23.0712407 60.162132,23.0547943 Z" id="Rectangle" fill="#00E9BA"></path>
                    </g>
                    <path d="M8.138,16.74 L8.138,9.612 C8.138,8.856 8.75,8.244 9.506,8.244 C10.262,8.244 10.874,8.856 10.874,9.612 L10.874,9.72 C11.504,8.91 12.332,8.172 13.718,8.172 C14.978,8.172 15.932,8.73 16.436,9.702 C17.282,8.712 18.29,8.172 19.604,8.172 C21.638,8.172 22.862,9.396 22.862,11.718 L22.862,16.74 C22.862,17.496 22.25,18.108 21.494,18.108 C20.738,18.108 20.126,17.496 20.126,16.74 L20.126,12.618 C20.126,11.322 19.55,10.656 18.524,10.656 C17.498,10.656 16.868,11.322 16.868,12.618 L16.868,16.74 C16.868,17.496 16.256,18.108 15.5,18.108 C14.744,18.108 14.132,17.496 14.132,16.74 L14.132,12.618 C14.132,11.322 13.556,10.656 12.53,10.656 C11.504,10.656 10.874,11.322 10.874,12.618 L10.874,16.74 C10.874,17.496 10.262,18.108 9.506,18.108 C8.75,18.108 8.138,17.496 8.138,16.74 Z M29.972,18.216 C26.984,18.216 24.77,16.002 24.77,13.23 L24.77,13.194 C24.77,10.422 27.002,8.172 30.008,8.172 C32.996,8.172 35.21,10.386 35.21,13.158 L35.21,13.194 C35.21,15.966 32.978,18.216 29.972,18.216 Z M30.008,15.858 C31.574,15.858 32.51,14.652 32.51,13.23 L32.51,13.194 C32.51,11.772 31.484,10.53 29.972,10.53 C28.406,10.53 27.47,11.736 27.47,13.158 L27.47,13.194 C27.47,14.616 28.496,15.858 30.008,15.858 Z M37.19,16.74 L37.19,9.612 C37.19,8.856 37.802,8.244 38.558,8.244 C39.314,8.244 39.926,8.856 39.926,9.612 L39.926,9.72 C40.556,8.91 41.366,8.172 42.752,8.172 C44.822,8.172 46.028,9.54 46.028,11.754 L46.028,16.74 C46.028,17.496 45.416,18.108 44.66,18.108 C43.904,18.108 43.292,17.496 43.292,16.74 L43.292,12.618 C43.292,11.322 42.68,10.656 41.636,10.656 C40.592,10.656 39.926,11.322 39.926,12.618 L39.926,16.74 C39.926,17.496 39.314,18.108 38.558,18.108 C37.802,18.108 37.19,17.496 37.19,16.74 Z M51.662,18.162 C49.988,18.162 48.854,17.496 48.854,15.264 L48.854,10.692 L48.764,10.692 C48.116,10.692 47.594,10.17 47.594,9.522 C47.594,8.874 48.116,8.352 48.764,8.352 L48.854,8.352 L48.854,7.146 C48.854,6.39 49.466,5.778 50.222,5.778 C50.978,5.778 51.59,6.39 51.59,7.146 L51.59,8.352 L52.796,8.352 C53.444,8.352 53.966,8.874 53.966,9.522 C53.966,10.17 53.444,10.692 52.796,10.692 L51.59,10.692 L51.59,14.814 C51.59,15.444 51.86,15.75 52.472,15.75 C52.562,15.75 52.742,15.732 52.796,15.732 C53.408,15.732 53.93,16.236 53.93,16.866 C53.93,17.352 53.606,17.748 53.228,17.892 C52.724,18.09 52.256,18.162 51.662,18.162 Z M55.838,6.084 L55.838,6.048 C55.838,5.256 56.504,4.77 57.368,4.77 C58.232,4.77 58.898,5.256 58.898,6.048 L58.898,6.084 C58.898,6.876 58.232,7.38 57.368,7.38 C56.504,7.38 55.838,6.876 55.838,6.084 Z M56,16.74 L56,9.612 C56,8.856 56.612,8.244 57.368,8.244 C58.124,8.244 58.736,8.856 58.736,9.612 L58.736,16.74 C58.736,17.496 58.124,18.108 57.368,18.108 C56.612,18.108 56,17.496 56,16.74 Z" id="monti" fill="#768C9A"></path>
                </g>
            </g>
        </g>
    </g>
</svg>