<svg xmlns="http://www.w3.org/2000/svg" width="41" height="57" viewBox="0 0 41 57">
    <defs>
        <linearGradient id="a" x1="0%" y1="50%" y2="50%">
            <stop offset="0%" stop-color="#F5F5F5"/>
            <stop offset="84.099%" stop-color="#E0E0E0"/>
            <stop offset="100%" stop-color="#F5F5F5"/>
        </linearGradient>
    </defs>
    <g fill="none" fill-rule="evenodd">
        <path fill="url(#a)" stroke="#768C9A" stroke-width="1.6" d="M29.967 23.031v23.724c.093 1.754-2.628 2.631-8.164 2.631s-8.258-.877-8.164-2.631V14.2"/>
        <g stroke="#768C9A" stroke-linecap="round" stroke-linejoin="round" stroke-width=".8">
            <path d="M15.273 48.7v-3.225M16.91 48.73v-2.534M18.545 48.749v-2.224M20.2 48.751v-2.097M21.803 48.754V46.68M23.439 48.76v-2.147M25.075 48.753V46.5M26.712 48.735v-2.527M28.348 48.705v-3.23"/>
        </g>
        <path fill="#EFF1F3" stroke="#768C9A" stroke-width="1.6" d="M13.64 14.203c0 1.262 3.703 4.005 8.502 6.265 2.232 1.05 4.41 1.86 6 2.226.778.18 1.383.243 1.748.196.15-.02.072.043.072.143 0-.36-.908-1.372-2.482-2.561-1.614-1.22-3.804-2.563-6.045-3.716-2.288-1.178-4.438-2.058-5.985-2.436-.763-.187-1.346-.242-1.684-.175-.153.03-.126.002-.126.058z"/>
        <g stroke="#768C9A" stroke-linecap="round" stroke-linejoin="round" stroke-width="1.6">
            <path d="M19.364 31v3.2M23.439 31v3.2"/>
        </g>
        <g>
            <path fill="#FF921F" d="M10.5 2.5v1a.5.5 0 1 1-1 0v-1h-1a.5.5 0 0 1 0-1h1v-1a.5.5 0 0 1 1 0v1h1a.5.5 0 1 1 0 1h-1zM38.5 51.5v1a.5.5 0 1 1-1 0v-1h-1a.5.5 0 1 1 0-1h1v-1a.5.5 0 1 1 1 0v1h1a.5.5 0 1 1 0 1h-1zM17.25 7.25v.5a.25.25 0 1 1-.5 0v-.5h-.5a.25.25 0 1 1 0-.5h.5v-.5a.25.25 0 1 1 .5 0v.5h.5a.25.25 0 1 1 0 .5h-.5z"/>
            <path fill="#00E9BA" d="M.5 21a.5.5 0 1 1 0-1h1a.5.5 0 1 1 0 1h-1zm3 0a.5.5 0 1 1 0-1h1a.5.5 0 1 1 0 1h-1zM2 18.5a.5.5 0 1 1 1 0v1a.5.5 0 1 1-1 0v-1zm0 3a.5.5 0 1 1 1 0v1a.5.5 0 1 1-1 0v-1z"/>
            <path stroke="#3D2633" stroke-linecap="round" stroke-linejoin="round" d="M36.5 9v1m2.475.025l-.707.707M40 12.5h-1m-.025 2.475l-.707-.707M36.5 16v-1m-2.475-.025l.707-.707M33 12.5h1m.025-2.475l.707.707"/>
            <circle cx="6" cy="41" r="2" stroke="#FF921F"/>
            <path fill="#768C9A" d="M29.324 55.11c.225-.073.45-.11.676-.11.225 0 .45.037.676.11a.333.333 0 0 1 .214.214c.073.225.11.45.11.676 0 .225-.037.45-.11.676a.333.333 0 0 1-.214.214A2.18 2.18 0 0 1 30 57a2.18 2.18 0 0 1-.676-.11.333.333 0 0 1-.214-.214A2.18 2.18 0 0 1 29 56c0-.225.037-.45.11-.676a.333.333 0 0 1 .214-.214zM13.162 55.055a1.09 1.09 0 0 1 .676 0c.051.017.09.056.107.107a1.09 1.09 0 0 1 0 .676.166.166 0 0 1-.107.107 1.09 1.09 0 0 1-.676 0 .166.166 0 0 1-.107-.107 1.09 1.09 0 0 1 0-.676.166.166 0 0 1 .107-.107zM35.162 37.055a1.09 1.09 0 0 1 .676 0c.051.017.09.056.107.107a1.09 1.09 0 0 1 0 .676.166.166 0 0 1-.107.107 1.09 1.09 0 0 1-.676 0 .166.166 0 0 1-.107-.107 1.09 1.09 0 0 1 0-.676.166.166 0 0 1 .107-.107z"/>
        </g>
    </g>
</svg>
