<?xml version="1.0" encoding="UTF-8"?>
<svg width="41px" height="57px" viewBox="0 0 41 57" version="1.1" xmlns="http://www.w3.org/2000/svg" xmlns:xlink="http://www.w3.org/1999/xlink">
    <!-- Generator: sketchtool 50.2 (55047) - http://www.bohemiancoding.com/sketch -->
    <title>042697A8-0DEE-4C2B-8DDD-89DC6D1D1F97</title>
    <desc>Created with sketchtool.</desc>
    <defs>
        <linearGradient x1="0%" y1="50%" x2="100%" y2="50%" id="linearGradient-1">
            <stop stop-color="#F5F5F5" offset="0%"></stop>
            <stop stop-color="#E0E0E0" offset="84.0985829%"></stop>
            <stop stop-color="#F5F5F5" offset="100%"></stop>
        </linearGradient>
    </defs>
    <g id="Symbols" stroke="none" stroke-width="1" fill="none" fill-rule="evenodd">
        <g id="Monti">
            <g>
                <path d="M29.9666025,23.031186 L29.9666025,46.7549195 C30.0601124,48.5091714 27.3387942,49.3862974 21.802648,49.3862974 C16.2665017,49.3862974 13.5451836,48.5091714 13.6386935,46.7549195 L13.6386935,14.2" id="Body" stroke="#768C9A" stroke-width="1.6" fill="url(#linearGradient-1)"></path>
                <g id="Teeth" transform="translate(13.636364, 44.600000)" stroke="#768C9A" stroke-linecap="round" stroke-linejoin="round" stroke-width="0.8">
                    <path d="M1.63636364,4.10078987 L1.63636364,0.875472559" id="Path-3"></path>
                    <path d="M3.27272727,4.12964235 L3.27272727,1.59649205" id="Path-3"></path>
                    <path d="M4.90909091,4.14887224 L4.90909091,1.9249421" id="Path-3"></path>
                    <path d="M6.56327549,4.1514244 L6.56327549,2.05350263" id="Path-3"></path>
                    <path d="M8.16628436,4.15420667 L8.16628436,2.08001429" id="Path-3"></path>
                    <path d="M9.802648,4.16073572 L9.802648,2.01320911" id="Path-3"></path>
                    <path d="M11.4390116,4.15270854 L11.4390116,1.90053454" id="Path-3"></path>
                    <path d="M13.0753753,4.13509033 L13.0753753,1.6079594" id="Path-3"></path>
                    <path d="M14.7117389,4.10459074 L14.7117389,0.875472559" id="Path-3"></path>
                </g>
                <path d="M13.6400879,14.2030182 C13.6400879,15.4654744 17.3432701,18.2084266 22.1419969,20.4679326 C24.3738468,21.518811 26.5512429,22.3280437 28.141377,22.6939733 C28.9197043,22.8730859 29.5245096,22.9372559 29.8895168,22.8900064 C30.0392234,22.8706271 29.9623141,22.9333921 29.9623141,23.0331584 C29.9623141,22.6730568 29.0544501,21.6609406 27.4798202,20.4716866 C25.8661361,19.2529368 23.6760881,17.9088327 21.4351857,16.7558234 C19.1468561,15.5784114 16.9965436,14.6978539 15.4502984,14.3195141 C14.6865871,14.132647 14.1035986,14.0779732 13.7656261,14.1449182 C13.613044,14.1751414 13.6400879,14.1465356 13.6400879,14.2030182 Z" id="Top" stroke="#768C9A" stroke-width="1.6" fill="#EFF1F3"></path>
                <g id="Eyes" transform="translate(16.909091, 30.200000)" stroke="#768C9A" stroke-linecap="round" stroke-linejoin="round" stroke-width="1.6">
                    <path d="M2.45454545,0.8 L2.45454545,4" id="Left"></path>
                    <path d="M6.52992072,0.8 L6.52992072,4" id="Right"></path>
                </g>
                <g id="Confetti">
                    <path d="M10.5,2.5 L10.5,3.5 C10.5,3.77614237 10.2761424,4 10,4 C9.72385763,4 9.5,3.77614237 9.5,3.5 L9.5,2.5 L8.5,2.5 C8.22385763,2.5 8,2.27614237 8,2 C8,1.72385763 8.22385763,1.5 8.5,1.5 L9.5,1.5 L9.5,0.5 C9.5,0.223857625 9.72385763,0 10,0 C10.2761424,0 10.5,0.223857625 10.5,0.5 L10.5,1.5 L11.5,1.5 C11.7761424,1.5 12,1.72385763 12,2 C12,2.27614237 11.7761424,2.5 11.5,2.5 L10.5,2.5 Z" id="Confetti/Plus" fill="#FF921F"></path>
                    <path d="M38.5,51.5 L38.5,52.5 C38.5,52.7761424 38.2761424,53 38,53 C37.7238576,53 37.5,52.7761424 37.5,52.5 L37.5,51.5 L36.5,51.5 C36.2238576,51.5 36,51.2761424 36,51 C36,50.7238576 36.2238576,50.5 36.5,50.5 L37.5,50.5 L37.5,49.5 C37.5,49.2238576 37.7238576,49 38,49 C38.2761424,49 38.5,49.2238576 38.5,49.5 L38.5,50.5 L39.5,50.5 C39.7761424,50.5 40,50.7238576 40,51 C40,51.2761424 39.7761424,51.5 39.5,51.5 L38.5,51.5 Z" id="Confetti/Plus" fill="#FF921F"></path>
                    <path d="M17.25,7.25 L17.25,7.75 C17.25,7.88807119 17.1380712,8 17,8 C16.8619288,8 16.75,7.88807119 16.75,7.75 L16.75,7.25 L16.25,7.25 C16.1119288,7.25 16,7.13807119 16,7 C16,6.86192881 16.1119288,6.75 16.25,6.75 L16.75,6.75 L16.75,6.25 C16.75,6.11192881 16.8619288,6 17,6 C17.1380712,6 17.25,6.11192881 17.25,6.25 L17.25,6.75 L17.75,6.75 C17.8880712,6.75 18,6.86192881 18,7 C18,7.13807119 17.8880712,7.25 17.75,7.25 L17.25,7.25 Z" id="Confetti/Plus" fill="#FF921F"></path>
                    <path d="M0.5,21 C0.223857625,21 0,20.7761424 0,20.5 C0,20.2238576 0.223857625,20 0.5,20 L1.5,20 C1.77614237,20 2,20.2238576 2,20.5 C2,20.7761424 1.77614237,21 1.5,21 L0.5,21 Z M3.5,21 C3.22385763,21 3,20.7761424 3,20.5 C3,20.2238576 3.22385763,20 3.5,20 L4.5,20 C4.77614237,20 5,20.2238576 5,20.5 C5,20.7761424 4.77614237,21 4.5,21 L3.5,21 Z M2,18.5 C2,18.2238576 2.22385763,18 2.5,18 C2.77614237,18 3,18.2238576 3,18.5 L3,19.5 C3,19.7761424 2.77614237,20 2.5,20 C2.22385763,20 2,19.7761424 2,19.5 L2,18.5 Z M2,21.5 C2,21.2238576 2.22385763,21 2.5,21 C2.77614237,21 3,21.2238576 3,21.5 L3,22.5 C3,22.7761424 2.77614237,23 2.5,23 C2.22385763,23 2,22.7761424 2,22.5 L2,21.5 Z" id="Combined-Shape" fill="#00E9BA"></path>
                    <path d="M36.5,9 L36.5,10 M38.9748737,10.0251263 L38.267767,10.732233 M40,12.5 L39,12.5 M38.9748737,14.9748737 L38.267767,14.267767 M36.5,16 L36.5,15 M34.0251263,14.9748737 L34.732233,14.267767 M33,12.5 L34,12.5 M34.0251263,10.0251263 L34.732233,10.732233" id="Line-4" stroke="#3D2633" stroke-linecap="round" stroke-linejoin="round"></path>
                    <circle id="Oval" stroke="#FF921F" cx="6" cy="41" r="2"></circle>
                    <path d="M29.3238817,55.1097126 C29.5492545,55.0365709 29.7746272,55 30,55 C30.225381,55 30.450762,55.0365735 30.6761429,55.1097206 L30.6761394,55.1097315 C30.7777026,55.1426936 30.8573263,55.2223182 30.8902874,55.3238817 C30.9634291,55.5492545 31,55.7746272 31,56 C31,56.225381 30.9634265,56.450762 30.8902794,56.6761429 L30.8902685,56.6761394 C30.8573064,56.7777026 30.7776818,56.8573263 30.6761183,56.8902874 C30.4507455,56.9634291 30.2253728,57 30,57 C29.774619,57 29.549238,56.9634265 29.3238571,56.8902794 L29.3238606,56.8902685 C29.2222974,56.8573064 29.1426737,56.7776818 29.1097126,56.6761183 C29.0365709,56.4507455 29,56.2253728 29,56 C29,55.774619 29.0365735,55.549238 29.1097206,55.3238571 L29.1097315,55.3238606 C29.1426936,55.2222974 29.2223182,55.1426737 29.3238817,55.1097126 Z" id="Rectangle" fill="#768C9A"></path>
                    <path d="M13.162132,55.0547943 C13.2747547,55.0182648 13.3873773,55 13.5,55 C13.612799,55 13.725598,55.018322 13.838397,55.054966 L13.8383214,55.0551986 C13.8890191,55.0716683 13.9287593,55.1114268 13.9452057,55.162132 C13.9817352,55.2747547 14,55.3873773 14,55.5 C14,55.612799 13.981678,55.725598 13.945034,55.838397 L13.9448014,55.8383214 C13.9283317,55.8890191 13.8885732,55.9287593 13.837868,55.9452057 C13.7252453,55.9817352 13.6126227,56 13.5,56 C13.387201,56 13.274402,55.981678 13.161603,55.945034 L13.1616786,55.9448014 C13.1109809,55.9283317 13.0712407,55.8885732 13.0547943,55.837868 C13.0182648,55.7252453 13,55.6126227 13,55.5 C13,55.387201 13.018322,55.274402 13.054966,55.161603 L13.0551986,55.1616786 C13.0716683,55.1109809 13.1114268,55.0712407 13.162132,55.0547943 Z" id="Rectangle" fill="#768C9A"></path>
                    <path d="M35.162132,37.0547943 C35.2747547,37.0182648 35.3873773,37 35.5,37 C35.612799,37 35.725598,37.018322 35.838397,37.054966 L35.8383214,37.0551986 C35.8890191,37.0716683 35.9287593,37.1114268 35.9452057,37.162132 C35.9817352,37.2747547 36,37.3873773 36,37.5 C36,37.612799 35.981678,37.725598 35.945034,37.838397 L35.9448014,37.8383214 C35.9283317,37.8890191 35.8885732,37.9287593 35.837868,37.9452057 C35.7252453,37.9817352 35.6126227,38 35.5,38 C35.387201,38 35.274402,37.981678 35.161603,37.945034 L35.1616786,37.9448014 C35.1109809,37.9283317 35.0712407,37.8885732 35.0547943,37.837868 C35.0182648,37.7252453 35,37.6126227 35,37.5 C35,37.387201 35.018322,37.274402 35.054966,37.161603 L35.0551986,37.1616786 C35.0716683,37.1109809 35.1114268,37.0712407 35.162132,37.0547943 Z" id="Rectangle" fill="#768C9A"></path>
                </g>
            </g>
        </g>
    </g>
</svg>