<?xml version="1.0" encoding="UTF-8"?>
<svg width="24px" height="24px" viewBox="0 0 24 24" version="1.1" xmlns="http://www.w3.org/2000/svg" xmlns:xlink="http://www.w3.org/1999/xlink">
    <!-- Generator: sketchtool 50 (54983) - http://www.bohemiancoding.com/sketch -->
    <title>2810EBAF-45B4-4711-B1A6-BE67D4C80E99</title>
    <desc>Created with sketchtool.</desc>
    <defs>
        <path d="M12,7.33333333 C9.42666667,7.33333333 7.33333333,9.42666667 7.33333333,12 C7.33333333,14.5733333 9.42666667,16.6666667 12,16.6666667 C14.5733333,16.6666667 16.6666667,14.5733333 16.6666667,12 C16.6666667,9.42666667 14.5733333,7.33333333 12,7.33333333 Z M12,15.3333333 C10.1626667,15.3333333 8.66666667,13.8373333 8.66666667,12 C8.66666667,10.1626667 10.1626667,8.66666667 12,8.66666667 C13.8373333,8.66666667 15.3333333,10.1626667 15.3333333,12 C15.3333333,13.8373333 13.8373333,15.3333333 12,15.3333333 Z M12.6666667,6 L11.3333333,6 L11.3333333,2 L12.6666667,2 L12.6666667,6 Z M11.3333333,18 L12.6666667,18 L12.6666667,22 L11.3333333,22 L11.3333333,18 Z M22,11.3333333 L22,12.6666667 L18,12.6666667 L18,11.3333333 L22,11.3333333 Z M6,12.6666667 L2,12.6666667 L2,11.3333333 L6,11.3333333 L6,12.6666667 Z M16.7146667,8.228 L15.772,7.28533333 L18.6,4.45733333 L19.5426667,5.4 L16.7146667,8.228 Z M7.28533333,15.772 L8.228,16.7146667 L5.4,19.5426667 L4.45733333,18.6 L7.28533333,15.772 Z M16.7146667,15.772 L19.5426667,18.6 L18.6,19.5426667 L15.772,16.7146667 L16.7146667,15.772 Z M7.28533333,8.228 L4.45733333,5.4 L5.4,4.45733333 L8.228,7.28533333 L7.28533333,8.228 Z" id="path-1"></path>
    </defs>
    <g id="Symbols" stroke="none" stroke-width="1" fill="none" fill-rule="evenodd">
        <g id="Icon/Themify/sun">
            <mask id="mask-2" fill="white">
                <use xlink:href="#path-1"></use>
            </mask>
            <use id="Mask" fill="#FFFFFF" fill-rule="nonzero" xlink:href="#path-1"></use>
            <g id="UI/Color/Flat/Body" mask="url(#mask-2)" fill="#262B3D">
                <rect id="Base" x="0" y="0" width="24" height="24"></rect>
            </g>
        </g>
    </g>
</svg>