<?xml version="1.0" encoding="UTF-8"?>
<svg width="24px" height="24px" viewBox="0 0 24 24" version="1.1" xmlns="http://www.w3.org/2000/svg" xmlns:xlink="http://www.w3.org/1999/xlink">
    <!-- Generator: sketchtool 50.2 (55047) - http://www.bohemiancoding.com/sketch -->
    <title>6114B2C5-DA04-4D97-BFC6-14A885F16BDE</title>
    <desc>Created with sketchtool.</desc>
    <defs>
        <path d="M20.39776,18.11776 L18.38816,14.1152 L14.3856,16.12224 L14.95904,17.26784 L17.35392,16.06592 C16.863311,18.5238767 14.8366888,20.380621 12.34528,20.65472 L12.34528,10.96 L14.26528,10.96 L14.26528,9.68 L12.34528,9.68 L12.34528,8.33472 C13.80448,8.03776 14.90528,6.74624 14.90528,5.2 C14.90528,3.43488 13.46912,2 11.70528,2 C9.94144,2 8.50528,3.43488 8.50528,5.2 C8.50528,6.74624 9.60608,8.03776 11.06528,8.33472 L11.06528,9.68 L9.14528,9.68 L9.14528,10.96 L11.06528,10.96 L11.06528,20.65472 C8.57626437,20.3808849 6.55084557,18.5273574 6.05792,16.07232 L8.43872,17.26784 L9.01216,16.12224 L5.0096,14.1152 L3,18.11776 L4.14432,18.69248 L4.9776,17.03104 C5.89018621,19.9818228 8.61660514,21.9955135 11.70528,22 C14.7868447,21.9958944 17.5089652,19.9916218 18.42784,17.05024 L19.25344,18.69248 L20.39776,18.11776 Z M9.78528,5.2 C9.78528,4.14144 10.64672,3.28 11.70528,3.28 C12.76384,3.28 13.62528,4.14144 13.62528,5.2 C13.62528,6.25856 12.76384,7.12 11.70528,7.12 C10.64672,7.12 9.78528,6.25856 9.78528,5.2 Z" id="path-1"></path>
    </defs>
    <g id="Symbols" stroke="none" stroke-width="1" fill="none" fill-rule="evenodd">
        <g id="Icon/Themify/anchor">
            <mask id="mask-2" fill="white">
                <use xlink:href="#path-1"></use>
            </mask>
            <use id="Mask" fill="#FFFFFF" fill-rule="nonzero" xlink:href="#path-1"></use>
            <g id="UI/Color/Flat/White" mask="url(#mask-2)" fill="#FFFFFF">
                <rect id="Base" x="0" y="0" width="24" height="24"></rect>
            </g>
        </g>
    </g>
</svg>