<?xml version="1.0" encoding="UTF-8"?>
<svg width="164px" height="80px" viewBox="0 0 164 80" version="1.1" xmlns="http://www.w3.org/2000/svg" xmlns:xlink="http://www.w3.org/1999/xlink">
    <!-- Generator: Sketch 50 (54983) - http://www.bohemiancoding.com/sketch -->
    <title>Export/confident-Export/confident-2</title>
    <desc>Created with Sketch.</desc>
    <defs></defs>
    <g id="Export/confident-Export/confident-2" stroke="none" stroke-width="1" fill="none" fill-rule="evenodd">
        <g id="confident-2" transform="translate(50.000000, 0.000000)">
            <polyline id="Path" stroke="#262B3D" points="64.9330585 79.9404937 64.9330585 0.0838017271 15.7790221 0.0838017271 15.7790221 24.5504578"></polyline>
            <path d="M26.290027,63.9527069 L40.3256226,76.8957286" id="Path-2" stroke="#C4C4C4"></path>
            <path d="M24.290184,40.2949991 L54.3979125,73.2093941" id="Path-3" stroke="#C4C4C4"></path>
            <path d="M27.0586775,13.4333901 L34.4612833,20.634873" id="Path-4" stroke="#C4C4C4"></path>
            <path d="M45.955311,42.1012057 L58.216058,55.6268433" id="Path-5" stroke="#C4C4C4"></path>
            <path d="M27.125908,35.4829122 C27.125908,30.9902114 31.4606437,26.6961771 36.1927915,26.6961771 C40.9249392,26.6961771 44.7523612,30.9902114 44.7523612,35.4829122 C44.7523612,39.9756131 41.5083009,45.0420697 36.1927915,45.0420697 C30.877282,45.0420697 27.125908,39.9756131 27.125908,35.4829122 Z" id="Path-7" stroke="#C4C4C4"></path>
            <path d="M44.4155284,33.2210667 C49.567111,32.8963456 58.3551236,34.1883921 58.8956704,46.016135 C59.256035,53.9012969 59.256035,65.0385494 58.8956704,79.4278924" id="Path-9" stroke="#C4C4C4"></path>
            <path d="M37.1642762,44.9140505 L37.1642762,78.4519618" id="Path-10" stroke="#C3C3C3"></path>
            <path d="M0.88810842,30.8390491 C0.88810842,26.3463482 5.2228441,22.0523139 9.95499188,22.0523139 C14.6871397,22.0523139 18.5145616,26.3463482 18.5145616,30.8390491 C18.5145616,35.3317499 15.2705014,40.3982065 9.95499188,40.3982065 C4.63948239,40.3982065 0.88810842,35.3317499 0.88810842,30.8390491 Z" id="Path-7" stroke="#262B3D"></path>
            <path d="M0,77.8092199 C3.23338268e-15,72.8727164 3.23338268e-15,65.586467 0,55.9504718 C-4.54196809e-15,41.4964789 5.95155654,40.3805425 10.9227188,40.3805425 C15.8938812,40.3805425 19.1537868,46.8733297 19.1537868,55.9504718 C19.1537868,62.0018998 19.1537868,69.2881492 19.1537868,77.8092199" id="Path-6" stroke="#262B3D"></path>
        </g>
    </g>
</svg>