<?xml version="1.0" encoding="UTF-8"?>
<svg width="164px" height="80px" viewBox="0 0 164 80" version="1.1" xmlns="http://www.w3.org/2000/svg" xmlns:xlink="http://www.w3.org/1999/xlink">
    <!-- Generator: Sketch 50 (54983) - http://www.bohemiancoding.com/sketch -->
    <title>Export/confident-Export/confident-5</title>
    <desc>Created with Sketch.</desc>
    <defs></defs>
    <g id="Export/confident-Export/confident-5" stroke="none" stroke-width="1" fill="none" fill-rule="evenodd">
        <g id="confident-5" transform="translate(49.000000, 0.000000)">
            <polyline id="Path" stroke="#262B3D" points="66.9325728 79.9404937 66.9325728 0.0838017271 17.4218916 0.0838017271 17.4218916 25.6677864"></polyline>
            <path d="M28.0091608,63.9527069 L42.1465938,76.8957286" id="Path-2" stroke="#C3C3C3"></path>
            <path d="M25.9948076,40.2949991 L56.3209874,73.2093941" id="Path-3" stroke="#C3C3C3"></path>
            <path d="M28.7833883,13.4333901 L36.2397049,20.634873" id="Path-4" stroke="#C3C3C3"></path>
            <path d="M48,50 L60.3497067,63.5256376" id="Path-5" stroke="#C3C3C3"></path>
            <path d="M0.5211268,77.8092199 C0.5211268,72.8727164 0.5211268,65.586467 0.5211268,55.9504718 C0.5211268,41.4964789 6.5158657,40.3805425 11.5230971,40.3805425 C16.5303284,40.3805425 19.8138868,46.8733297 19.8138868,55.9504718 C19.8138868,62.0018998 19.8138868,69.2881492 19.8138868,77.8092199" id="Path-6" stroke="#262B3D"></path>
            <path d="M1.415679,30.8390491 C1.415679,26.3463482 5.781866,22.0523139 10.5483486,22.0523139 C15.3148312,22.0523139 19.1700237,26.3463482 19.1700237,30.8390491 C19.1700237,35.3317499 15.9024256,40.3982065 10.5483486,40.3982065 C5.1942716,40.3982065 1.415679,35.3317499 1.415679,30.8390491 Z" id="Path-7" stroke="#262B3D"></path>
            <path d="M35.0503018,31.0000149 C35.0503018,26.507314 39.4164888,22.2132797 44.1829715,22.2132797 C48.9494541,22.2132797 52.8046465,26.507314 52.8046465,31.0000149 C52.8046465,35.4927157 49.5370484,40.5591723 44.1829715,40.5591723 C38.8288945,40.5591723 35.0503018,35.4927157 35.0503018,31.0000149 Z" id="Path-7" stroke="#C3C3C3"></path>
            <path d="M35.366709,78.3538446 C35.366709,68.7661403 35.366709,60.7514138 35.366709,54.309665 C35.366709,44.6470418 38.4504165,40.8383017 43.6393773,40.5135806 C48.828338,40.1888595 53.2434926,42.4819221 53.7879614,54.309665 C54.1509407,62.1948269 54.1509407,70.6427006 53.7879614,79.653286" id="Path-9" stroke="#C3C3C3"></path>
            <path d="M35.9879681,47.6286579 L22.1210163,39.5803681 C21.7649684,32.8369394 21.7649684,28.9938811 22.1210163,28.0511931 C22.6550883,26.6371611 23.4039078,26.5422405 24.2048072,26.6371611 C25.0057066,26.7320816 26.2399841,27.6394801 26.0342625,28.514981 C25.8285409,29.390482 25.178135,30.3606187 23.9107254,29.8187779 C23.0657856,29.4575507 22.2719355,28.210111 21.5291751,26.0764588" id="Path-8" stroke="#C3C3C3"></path>
            <path d="M65.349706,48.5521991 L53.5055094,40.5039093 C53.2013977,33.7604806 53.2013977,29.9174223 53.5055094,28.9747343 C53.9616769,27.5607023 54.6012671,27.4657817 55.2853402,27.5607023 C55.9694134,27.6556228 57.0236484,28.5630213 56.8479352,29.4385222 C56.6722219,30.3140232 56.1166899,31.2841599 55.0341558,30.7423191 C54.3124663,30.3810919 53.6344142,29.1336522 52.9999993,27" id="Path-8" stroke="#C3C3C3" transform="translate(59.174853, 37.776100) scale(-1, 1) translate(-59.174853, -37.776100) "></path>
        </g>
    </g>
</svg>