<?xml version="1.0" encoding="UTF-8"?>
<svg width="162px" height="80px" viewBox="0 0 162 80" version="1.1" xmlns="http://www.w3.org/2000/svg" xmlns:xlink="http://www.w3.org/1999/xlink">
    <!-- Generator: Sketch 50 (54983) - http://www.bohemiancoding.com/sketch -->
    <title>Export/problems-4</title>
    <desc>Created with Sketch.</desc>
    <defs></defs>
    <g id="Export/problems-4" stroke="none" stroke-width="1" fill="none" fill-rule="evenodd">
        <g id="problems-4" transform="translate(48.000000, 0.000000)" stroke="#000000">
            <polyline id="Path" stroke-width="0.5" points="12.0638376 0.128698424 65.8201242 31.8276235 65.8201242 78.1449422 59.6638425 79.9040325 59.6638425 32.9936458 3.93938436 0.396480562 3.93938436 28.897828"></polyline>
            <path d="M3.85086735,0.178472792 L12.2772277,0.178472792" id="Path-2" stroke-width="0.5"></path>
            <path d="M59.6635735,33.0575502 L66.022446,31.9919778" id="Path-3" stroke-width="0.5"></path>
            <circle id="Oval" cx="5.94059406" cy="34.4554455" r="5.94059406"></circle>
            <ellipse id="Oval-2" cx="5.94059406" cy="49.1089109" rx="5.14851485" ry="8.71287129"></ellipse>
            <path d="M5.94059406,44.7524752 L19.8677297,50.3668121" id="Path-4"></path>
            <path d="M7.78494097,57.029703 L7.78494097,71.0704787" id="Path-6"></path>
            <path d="M3.16831683,56.2376238 L3.16831683,70.2969544" id="Path-7"></path>
            <path d="M9.79933172,43.4734788 L19.316481,50.2244995" id="Path-8"></path>
            <path d="M13.8539644,71.7624562 C19.4134775,70.4823682 21.5662033,69.5483286 20.3121417,68.9603372 C18.4310493,68.07835 12.8367537,65.89741 13.8539644,57.4482636 C14.871175,48.9991172 20.6410593,49.639544 23.770729,40.232648 C26.9003987,30.825752 29.408477,22.1963944 29.408477,18.6210544 C29.408477,15.0457145 31.7416817,14.2574257 35.0462601,14.2574257 C38.3508386,14.2574257 39.5608727,15.2647751 39.1568058,16.01459" id="Path-5"></path>
        </g>
    </g>
</svg>