<?xml version="1.0" encoding="UTF-8"?>
<svg width="162px" height="80px" viewBox="0 0 162 80" version="1.1" xmlns="http://www.w3.org/2000/svg" xmlns:xlink="http://www.w3.org/1999/xlink">
    <!-- Generator: Sketch 50 (54983) - http://www.bohemiancoding.com/sketch -->
    <title>Export/problems-3</title>
    <desc>Created with Sketch.</desc>
    <defs></defs>
    <g id="Export/problems-3" stroke="none" stroke-width="1" fill="none" fill-rule="evenodd">
        <g id="problems-3" transform="translate(48.000000, 0.000000)" stroke="#000000">
            <g id="Wall" transform="translate(3.168317, 0.000000)" stroke-width="0.5">
                <polyline id="Path" points="8.89552079 0.128698424 62.6518074 31.8276235 62.6518074 78.1449422 56.4955257 79.9040325 56.4955257 32.9936458 0.771067531 0.396480562 0.771067531 28.897828"></polyline>
                <path d="M0.682550515,0.178472792 L9.10891089,0.178472792" id="Path-2"></path>
                <path d="M56.4952567,33.0575502 L62.8541292,31.9919778" id="Path-3"></path>
            </g>
            <circle id="Oval" cx="5.94059406" cy="34.4554455" r="5.94059406"></circle>
            <ellipse id="Oval-2" cx="5.94059406" cy="49.1089109" rx="5.14851485" ry="8.71287129"></ellipse>
            <path d="M5.94059406,44.7524752 L19.8677297,50.3668121" id="Path-4"></path>
            <path d="M7.78494097,57.029703 L7.78494097,71.0704787" id="Path-6"></path>
            <path d="M3.16831683,56.2376238 L3.16831683,70.2969544" id="Path-7"></path>
            <path d="M9.79933172,43.4734788 L19.316481,50.2244995" id="Path-8"></path>
            <path d="M14.8407224,55.6424932 L27.1873755,33.9284779" id="Path-5" transform="translate(21.014049, 44.785486) rotate(-4.000000) translate(-21.014049, -44.785486) "></path>
            <polygon id="Rectangle" fill="#000000" fill-rule="nonzero" transform="translate(27.116466, 32.293632) rotate(-4.000000) translate(-27.116466, -32.293632) " points="21.4819779 31.5047911 30.7714148 36.625045 32.7509547 32.887749 23.7464191 27.9622197"></polygon>
        </g>
    </g>
</svg>