<?xml version="1.0" encoding="UTF-8"?>
<svg width="162px" height="80px" viewBox="0 0 162 80" version="1.1" xmlns="http://www.w3.org/2000/svg" xmlns:xlink="http://www.w3.org/1999/xlink">
    <!-- Generator: Sketch 50 (54983) - http://www.bohemiancoding.com/sketch -->
    <title>Export/problems-5</title>
    <desc>Created with Sketch.</desc>
    <defs></defs>
    <g id="Export/problems-5" stroke="none" stroke-width="1" fill="none" fill-rule="evenodd">
        <g id="problems-5" transform="translate(48.000000, 0.000000)" stroke="#000000">
            <polyline id="Path" stroke-width="0.5" points="12.0638376 0.128698424 65.8201242 31.8276235 65.8201242 78.1449422 59.6638425 79.9040325 59.6638425 32.9936458 3.93938436 0.396480562 3.93938436 28.897828"></polyline>
            <path d="M3.85086735,0.178472792 L12.2772277,0.178472792" id="Path-2" stroke-width="0.5"></path>
            <path d="M59.6635735,33.0575502 L66.022446,31.9919778" id="Path-3" stroke-width="0.5"></path>
            <circle id="Oval" cx="5.94059406" cy="34.4554455" r="5.94059406"></circle>
            <ellipse id="Oval-2" cx="5.94059406" cy="49.1089109" rx="5.14851485" ry="8.71287129"></ellipse>
            <path d="M5.94059406,44.7524752 L6.73267327,54.2574257" id="Path-4"></path>
            <path d="M7.78494097,57.029703 L7.78494097,71.0704787" id="Path-6"></path>
            <path d="M3.16831683,56.2376238 L3.16831683,70.2969544" id="Path-7"></path>
            <path d="M9.79933172,43.4734788 L20.1980198,47.9207921" id="Path-8"></path>
            <g id="ladder" transform="translate(15.841584, 3.168317)">
                <path d="M0.734585558,64.4877825 L12.8594106,0.443494097" id="Path-5"></path>
                <path d="M12.6732673,71.9650805 L24.7980924,7.92079208" id="Path-5"></path>
                <path d="M2.37623762,57.029703 L14.244203,64.0183861" id="Path-9"></path>
                <path d="M3.47469587,49.3070773 L15.6607484,56.2801994" id="Path-9"></path>
                <path d="M4.95607503,41.4935103 L16.9385278,48.1612409" id="Path-9"></path>
                <path d="M6.75736995,33.3458019 L18.8817949,39.6025952" id="Path-9"></path>
                <path d="M7.92079208,26.2088449 L20.0452171,32.4656383" id="Path-9"></path>
                <path d="M9.5049505,19.9520516 L21.6293755,26.2088449" id="Path-9"></path>
                <path d="M10.2970297,12.7531076 L22.4214547,19.009901" id="Path-9"></path>
                <path d="M11.8811881,6.33663366 L24.0056131,12.593427" id="Path-9"></path>
            </g>
        </g>
    </g>
</svg>